<svg width="19" height="21" viewBox="0 0 19 21" fill="none" xmlns="http://www.w3.org/2000/svg">
<path d="M3.52464 4.5H13.7246C14.9246 4.5 15.8996 5.4 15.9746 6.6L16.5746 19.125C16.6496 20.55 15.5246 21.675 14.0996 21.675H3.22464C1.79964 21.675 0.674637 20.475 0.749637 19.125L1.27464 6.6C1.34964 5.475 2.32464 4.5 3.52464 4.5Z" fill="white"/>
<path d="M15.3734 7.19946C15.4484 6.37446 15.4484 6.82446 15.4484 5.99946C15.4484 5.99946 15.7484 7.72446 15.7484 6.29946C15.7484 4.57446 15.8234 6.59946 15.8234 6.82446C15.8234 7.27446 15.8234 6.37446 15.8234 6.82446C15.8984 7.27446 15.8984 7.72446 15.9734 8.17446C16.0484 9.74946 16.1234 11.3995 16.1984 12.9745C16.3484 15.6745 16.3484 16.4995 16.4984 19.1995C16.4984 19.2745 16.2734 20.7745 15.7484 21.1495C15.4484 21.2995 14.3984 21.8245 14.0984 21.8245L2.77344 21.4495C1.42344 21.4495 1.42344 19.5745 0.898438 19.4995C3.14844 19.7995 5.39844 19.8745 7.64844 19.8745C8.39844 19.8745 9.14844 19.8745 9.89844 19.7995C10.8734 19.7245 11.6984 19.4995 12.5234 18.9745C13.4234 18.2995 14.0984 17.3995 14.4734 16.3495C14.8484 15.2995 14.9984 14.0995 15.1484 12.9745C15.1484 11.0245 15.2984 9.14946 15.3734 7.19946Z" fill="#E7EEFF"/>
<path d="M13.6496 5.175C14.4746 5.175 15.1496 5.85 15.1496 6.675L15.7496 19.2C15.7496 19.725 15.5996 20.175 15.2246 20.475C14.8496 20.775 14.3996 21 13.9496 21H3.22464C2.69964 21 2.24964 20.775 1.94964 20.475C1.57464 20.1 1.42464 19.65 1.42464 19.2L1.94964 6.675C1.94964 5.85 2.62464 5.175 3.44964 5.175H13.6496ZM13.6496 4.5H3.52464C2.32464 4.5 1.34964 5.475 1.27464 6.6L0.749637 19.2C0.674637 20.55 1.79964 21.75 3.22464 21.75H14.0246C15.4496 21.75 16.5746 20.55 16.4996 19.2L15.8996 6.675C15.8246 5.475 14.8496 4.5 13.6496 4.5Z" fill="#333333"/>
<path d="M5.39961 7.725C5.77461 7.725 6.07461 7.425 6.07461 7.05C6.07461 6.675 5.77461 6.375 5.39961 6.375C5.02461 6.375 4.72461 6.675 4.72461 7.05C4.72461 7.425 5.02461 7.725 5.39961 7.725Z" fill="#D2E9FF"/>
<path d="M11.7746 7.64883C12.1496 7.64883 12.4496 7.34883 12.4496 6.97383C12.4496 6.59883 12.1496 6.29883 11.7746 6.29883C11.3996 6.29883 11.0996 6.59883 11.0996 6.97383C11.0996 7.34883 11.3996 7.64883 11.7746 7.64883Z" fill="#D2E9FF"/>
<path fill-rule="evenodd" clip-rule="evenodd" d="M8.62344 1.125C7.03054 1.125 5.77344 2.38211 5.77344 3.975V6.74981L5.02344 6.75M5.02344 6.75V3.975C5.02344 1.96789 6.61633 0.375 8.62344 0.375C10.6305 0.375 12.2234 1.96789 12.2234 3.975V6.75C12.2234 6.95711 12.0555 7.125 11.8484 7.125C11.6413 7.125 11.4734 6.95711 11.4734 6.75V3.975C11.4734 2.38211 10.2163 1.125 8.62344 1.125" fill="#333333"/>
<path d="M14.6243 14.8484C14.1743 14.6234 13.6493 14.5484 13.0493 14.4734C12.4493 14.3984 11.2493 14.3984 11.2493 14.3984C10.6493 14.3984 10.0493 14.4734 9.37427 14.4734C9.29927 14.4734 9.29927 14.4734 9.22427 14.4734C8.17427 14.5484 7.27427 13.7234 7.27427 12.6734C7.19927 11.6234 8.02427 10.7234 8.99927 10.6484C9.07427 10.6484 9.14927 10.6484 9.22427 10.6484C9.22427 10.6484 9.52427 10.6484 9.59927 10.6484C10.9493 10.7234 12.2993 10.7984 13.7243 11.1734L13.9493 11.2484C14.6993 11.4734 15.3743 11.6984 16.1243 12.2234C20.8493 15.4484 15.7493 21.2234 15.5243 21.2984C15.7493 21.1484 16.9493 18.2984 16.1243 16.2734C16.0493 16.0484 15.9743 15.8984 15.8243 15.6734H15.7493L14.6243 14.8484ZM14.6243 14.8484C15.0743 15.0734 15.4493 15.2984 15.7493 15.6734L14.6243 14.8484Z" fill="#F43397" stroke="#F43397" stroke-width="0.2511"/>
<path d="M11.0969 16.7252C11.4719 16.9502 11.9219 16.6502 11.9219 16.2752V9.00016C11.9219 8.62516 11.4719 8.32516 11.0969 8.55016V16.7252ZM11.0969 16.7252L4.79688 13.1252C4.42188 12.9002 4.42188 12.4502 4.79688 12.2252L11.0969 8.55016V16.7252Z" fill="#F43397" stroke="#F43397" stroke-width="0.2511"/>
</svg>
