<svg width="20" height="21" viewBox="0 0 20 21" fill="none" xmlns="http://www.w3.org/2000/svg">
<path fill-rule="evenodd" clip-rule="evenodd" d="M0 10.5C0 4.98 4.48 0.5 10 0.5C15.52 0.5 20 4.98 20 10.5C20 16.02 15.52 20.5 10 20.5C4.48 20.5 0 16.02 0 10.5ZM7.28288 14.7925C7.67288 15.1825 8.30288 15.1825 8.69288 14.7925L16.2729 7.2025C16.6629 6.8125 16.6629 6.1825 16.2729 5.7925C15.8829 5.4025 15.2529 5.4025 14.8629 5.7925L7.98288 12.6725L5.10288 9.7925C4.71288 9.4025 4.08288 9.4025 3.69288 9.7925C3.50562 9.97933 3.40039 10.233 3.40039 10.4975C3.40039 10.762 3.50562 11.0157 3.69288 11.2025L7.28288 14.7925Z" fill="#06A759"/>
</svg>
