<svg width="18" height="21" viewBox="0 0 18 21" fill="none" xmlns="http://www.w3.org/2000/svg">
<path d="M2.59 13.0609C2.53389 14.7766 1.94526 16.3398 1.65796 16.907C2.14758 16.814 3.63912 17.3962 3.94214 17.5594C4.68804 17.7226 5.71365 18.7948 6.22645 18.7015C6.17983 17.8624 6.5994 17.6526 6.71595 17.4895C7.1122 17.3263 7.50846 16.8368 7.62501 16.1841C8.18443 14.3427 9.3732 11.6155 9.58298 11.126C10.2356 9.98388 10.8417 7.93267 10.7018 7.11684C9.72284 4.29642 8.58069 3.57378 8.27767 3.41061C7.83479 3.10759 6.8558 4.45968 6.62271 4.80932C6.36631 5.62514 3.87222 8.09595 3.54589 8.37566C2.38042 9.14487 2.61352 11.3359 2.59 13.0609Z" fill="white"/>
<path fill-rule="evenodd" clip-rule="evenodd" d="M6.87558 4.93378C6.8297 5.06029 6.75377 5.19771 6.66595 5.33519C6.566 5.49168 6.44035 5.66397 6.29962 5.84347C6.01806 6.20261 5.6664 6.60289 5.31579 6.98285C4.61738 7.73971 3.90336 8.43706 3.72743 8.58786L3.714 8.59937L3.69924 8.60911C3.23053 8.91846 3.00726 9.54013 2.9182 10.3874C2.8574 10.9658 2.86304 11.59 2.86867 12.2126C2.87124 12.4979 2.87382 12.7828 2.87 13.0628L2.86993 13.0682C2.8221 14.5305 2.40012 15.8818 2.08523 16.641C2.13509 16.6491 2.18489 16.6585 2.23382 16.6686C2.46141 16.7156 2.71418 16.7881 2.95568 16.8671C3.40439 17.0138 3.84343 17.1924 4.03881 17.2909C4.25664 17.3452 4.47721 17.4549 4.68179 17.5743C4.87202 17.6853 5.06597 17.8155 5.24677 17.9368C5.27366 17.9548 5.30027 17.9727 5.32653 17.9903C5.5352 18.1299 5.7206 18.2504 5.88221 18.3312C5.90597 18.343 5.92813 18.3535 5.94874 18.3626C5.97686 18.0745 6.06211 17.8575 6.17039 17.6882C6.24243 17.5755 6.31975 17.4917 6.381 17.4296C6.40384 17.4065 6.41451 17.396 6.42391 17.3868C6.43274 17.3781 6.44046 17.3706 6.45612 17.3546C6.46557 17.345 6.47237 17.3377 6.47743 17.332C6.47988 17.3292 6.48163 17.3271 6.48283 17.3257L6.48415 17.324L6.53157 17.2576L6.60656 17.2267C6.89491 17.108 7.24184 16.7123 7.34536 16.1326L7.34829 16.1162L7.35315 16.1002C7.88435 14.3517 8.97363 11.8217 9.27428 11.1234C9.29341 11.0789 9.30935 11.0419 9.32175 11.013L9.3281 10.9982L9.33611 10.9842C9.64811 10.4382 9.95503 9.66235 10.1663 8.91992C10.2716 8.54991 10.3516 8.19384 10.3967 7.88422C10.4406 7.58292 10.4486 7.34436 10.4252 7.18398C9.46756 4.43909 8.37268 3.78123 8.14195 3.65699L8.12876 3.64989L8.12474 3.64714C8.11144 3.64752 8.07515 3.65406 8.00235 3.69542C7.88036 3.76474 7.73164 3.89289 7.57322 4.05833C7.27749 4.36718 7 4.75039 6.87558 4.93378ZM8.1309 3.64775C8.1309 3.64775 8.1296 3.64785 8.12743 3.64715C8.12988 3.64726 8.1309 3.64775 8.1309 3.64775ZM8.42081 3.16655C8.1726 3.00723 7.8999 3.10487 7.72368 3.205C7.53026 3.3149 7.33664 3.48981 7.16581 3.66822C6.82032 4.02903 6.50685 4.46971 6.38604 4.65093L6.36371 4.68442L6.35164 4.72281C6.33083 4.78903 6.27973 4.89198 6.19058 5.03155C6.10379 5.16743 5.98997 5.32421 5.85572 5.49544C5.58733 5.83777 5.24699 6.22564 4.90124 6.60032C4.22396 7.33429 3.54489 7.99736 3.37238 8.14911C2.68801 8.61152 2.44814 9.46342 2.35722 10.3285C2.29299 10.9395 2.29898 11.6195 2.30461 12.2579C2.30704 12.5335 2.3094 12.8013 2.30602 13.0524C2.251 14.7174 1.67717 16.239 1.40436 16.7776L1.40607 16.7878C1.42499 16.9008 1.48357 17.0034 1.5713 17.077C1.63455 17.065 1.90902 17.1775 2.11978 17.221C2.31903 17.2621 2.54989 17.3279 2.78036 17.4032C3.24633 17.5556 3.67663 17.7359 3.80643 17.8058L3.84124 17.8245L3.87987 17.833C4.02258 17.8642 4.19596 17.9438 4.39746 18.0614C4.57115 18.1628 4.74887 18.282 4.93111 18.4043C4.95827 18.4225 4.98552 18.4408 5.01288 18.4591C5.21794 18.5963 5.43172 18.7366 5.62995 18.8357C5.81633 18.9289 6.04942 19.0181 6.2749 18.9771L6.51986 18.9326L6.50605 18.684C6.48569 18.3175 6.56694 18.1151 6.64563 17.992C6.68722 17.9269 6.73372 17.8752 6.78247 17.8259C6.78916 17.8191 6.79735 17.811 6.80655 17.802C6.82993 17.7789 6.85983 17.7495 6.88819 17.7184C7.36058 17.4905 7.77007 16.9344 7.89755 16.2488C8.42032 14.5342 9.49102 12.0466 9.79261 11.3459C9.80861 11.3087 9.82245 11.2766 9.83392 11.2499C10.1716 10.6549 10.4907 9.8409 10.7089 9.07433C10.8192 8.68678 10.9053 8.3057 10.9549 7.96557C11.0037 7.63084 11.0203 7.31495 10.9778 7.06725L10.9739 7.04436L10.9663 7.02242C9.97783 4.17479 8.8076 3.37791 8.42081 3.16655Z" fill="#333333"/>
<path d="M1.15825 16.4906C0.968819 16.6169 0.527002 17.8323 0.329773 18.4241C2.38177 19.9629 5.41986 20.6339 5.99201 20.7128C6.28796 20.5944 6.64309 19.1344 6.64309 18.6017C6.64309 18.069 1.47396 16.4709 1.15825 16.4906Z" fill="white"/>
<path d="M5.00607 2.55811L9.23754 17.5213L16.7361 15.2645L12.3526 0.322105L5.00607 2.55811Z" fill="white"/>
<path fill-rule="evenodd" clip-rule="evenodd" d="M12.5002 0.0370992C12.5728 0.0762958 12.6268 0.142899 12.65 0.222076L17.0334 15.1645C17.0813 15.3275 16.9886 15.4985 16.8259 15.5475L9.32739 17.8043C9.24803 17.8281 9.16241 17.8192 9.08974 17.7793C9.01708 17.7395 8.96345 17.6722 8.9409 17.5924L4.70943 2.62919C4.66363 2.46724 4.75584 2.29841 4.91685 2.2494L12.2634 0.0133928C12.3424 -0.0106331 12.4276 -0.00209734 12.5002 0.0370992ZM5.38671 2.75255L9.4502 17.1218L16.3539 15.044L12.1447 0.695676L5.38671 2.75255Z" fill="#333333"/>
<path d="M9.36987 18.5641C9.30864 18.5641 9.24959 18.5433 9.20148 18.5061C9.14463 18.4613 9.10745 18.3957 9.0987 18.3235L7.26179 2.77207C7.25304 2.69991 7.27382 2.62774 7.31865 2.56979C7.36348 2.51293 7.43017 2.47576 7.50234 2.4681L15.2961 1.58573C15.307 1.58464 15.3169 1.58354 15.3267 1.58354C15.4634 1.58354 15.5815 1.68632 15.5979 1.82518L17.4129 17.2914C17.4304 17.4401 17.3244 17.5756 17.1757 17.5942L9.40376 18.5608C9.39283 18.5641 9.3808 18.5641 9.36987 18.5641Z" fill="white"/>
<path d="M15.323 1.86469L17.1381 17.3298L9.36614 18.2963L7.52923 2.74706L15.323 1.86469ZM15.3241 1.31799C15.3033 1.31799 15.2825 1.31908 15.2618 1.32127L7.468 2.20364C7.32367 2.22004 7.19137 2.2933 7.10061 2.40701C7.00986 2.52073 6.96941 2.66615 6.98581 2.81048L8.82272 18.3609C8.84022 18.5052 8.91348 18.6375 9.02828 18.7271C9.1245 18.8026 9.24368 18.843 9.36505 18.843C9.38801 18.843 9.40988 18.8419 9.43284 18.8387L17.2047 17.8721C17.5032 17.8349 17.7154 17.5638 17.6804 17.2664L15.8653 1.80127C15.8336 1.52355 15.5974 1.31799 15.3241 1.31799Z" fill="#333333"/>
<path d="M10.2632 17.0915L16.1325 16.3206L14.4946 3.18559L8.71927 3.6634L10.2632 17.0915Z" fill="#E7EEFF"/>
<path d="M14.4985 3.77794C14.2503 3.77794 14.0261 3.62158 13.9408 3.38869C13.8862 3.23999 13.8927 3.07816 13.9594 2.93493C14.0261 2.79169 14.1453 2.68235 14.294 2.62768C14.3596 2.60363 14.4285 2.5916 14.4985 2.5916C14.7467 2.5916 14.9708 2.74796 15.0561 2.98085C15.1687 3.2881 15.0102 3.63033 14.7029 3.74295C14.6362 3.76591 14.5673 3.77794 14.4985 3.77794Z" fill="#F43397"/>
<path d="M14.4945 2.81533C14.6476 2.81533 14.7908 2.90936 14.8466 3.06134C14.9177 3.25597 14.8182 3.47137 14.6235 3.54244C14.5809 3.55775 14.5372 3.5654 14.4945 3.5654C14.3414 3.5654 14.1982 3.47137 14.1424 3.31939C14.0714 3.12476 14.1709 2.90936 14.3655 2.83829C14.4081 2.82298 14.4508 2.81533 14.4945 2.81533ZM14.4945 2.37797C14.3994 2.37797 14.3054 2.39437 14.2157 2.42717C14.0123 2.50152 13.8494 2.65132 13.7576 2.84813C13.6668 3.04494 13.657 3.26581 13.7313 3.46918C13.8483 3.78846 14.1545 4.00276 14.4945 4.00276C14.5896 4.00276 14.6837 3.98636 14.7744 3.95356C14.9778 3.87921 15.1407 3.72941 15.2315 3.5326C15.3222 3.33579 15.3321 3.11492 15.2577 2.91155C15.1407 2.59227 14.8335 2.37797 14.4945 2.37797Z" fill="white"/>
<path d="M8.72247 4.25241C8.47427 4.25241 8.25012 4.09605 8.16483 3.86316C8.05221 3.55591 8.21076 3.21367 8.518 3.10105C8.58361 3.077 8.65249 3.06497 8.72247 3.06497C8.97067 3.06497 9.19482 3.22133 9.2801 3.45422C9.33477 3.60293 9.32821 3.76475 9.26152 3.90799C9.19482 4.05232 9.07564 4.16166 8.92693 4.21523C8.86024 4.24038 8.79245 4.25241 8.72247 4.25241Z" fill="#F43397"/>
<path d="M8.72324 3.26694C8.87632 3.26694 9.01955 3.36098 9.07532 3.51296C9.14639 3.70759 9.04689 3.92299 8.85226 3.99406C8.80962 4.00936 8.76589 4.01702 8.72324 4.01702C8.57017 4.01702 8.42693 3.92299 8.37117 3.771C8.3001 3.57638 8.3996 3.36098 8.59422 3.28991C8.63686 3.2746 8.6806 3.26694 8.72324 3.26694ZM8.72324 2.82958C8.62812 2.82958 8.53408 2.84598 8.44442 2.87879C8.02346 3.03296 7.80697 3.50093 7.96114 3.9208C8.07814 4.24007 8.38429 4.45438 8.72434 4.45438C8.81946 4.45438 8.91349 4.43798 9.00315 4.40518C9.42411 4.25101 9.64061 3.78303 9.48644 3.36316C9.36944 3.04389 9.0622 2.82958 8.72324 2.82958Z" fill="white"/>
<path d="M16.1412 16.9032C15.893 16.9032 15.6689 16.7468 15.5836 16.5139C15.471 16.2067 15.6295 15.8644 15.9368 15.7518C16.0024 15.7277 16.0712 15.7157 16.1412 15.7157C16.3894 15.7157 16.6136 15.8721 16.6989 16.105C16.8115 16.4122 16.6529 16.7544 16.3457 16.8671C16.279 16.8911 16.2101 16.9032 16.1412 16.9032Z" fill="#F43397"/>
<path d="M16.1366 15.9413C16.2897 15.9413 16.4329 16.0353 16.4887 16.1873C16.5597 16.382 16.4602 16.5974 16.2656 16.6684C16.223 16.6837 16.1792 16.6914 16.1366 16.6914C15.9835 16.6914 15.8403 16.5974 15.7845 16.4454C15.7134 16.2507 15.8129 16.0353 16.0076 15.9643C16.0491 15.949 16.0928 15.9413 16.1366 15.9413ZM16.1366 15.504C16.0414 15.504 15.9474 15.5204 15.8567 15.5532C15.6533 15.6275 15.4904 15.7773 15.3996 15.9741C15.3078 16.1709 15.299 16.3918 15.3734 16.5952C15.4904 16.9144 15.7965 17.1288 16.1366 17.1288C16.2317 17.1288 16.3257 17.1123 16.4165 17.0795C16.6199 17.0052 16.7828 16.8554 16.8735 16.6586C16.9654 16.4618 16.9741 16.2409 16.8998 16.0375C16.7817 15.7183 16.4755 15.504 16.1366 15.504Z" fill="white"/>
<path d="M10.2625 17.6731C10.0143 17.6731 9.79017 17.5167 9.70489 17.2839C9.65022 17.1351 9.65678 16.9733 9.72348 16.8301C9.79017 16.6858 9.90936 16.5764 10.0581 16.5228C10.1237 16.4988 10.1925 16.4868 10.2625 16.4868C10.5107 16.4868 10.7349 16.6431 10.8202 16.876C10.8748 17.0247 10.8683 17.1865 10.8016 17.3298C10.7349 17.4741 10.6157 17.5834 10.467 17.637C10.4014 17.6611 10.3325 17.6731 10.2625 17.6731Z" fill="#F43397"/>
<path d="M10.2615 16.7038C10.4146 16.7038 10.5578 16.7979 10.6136 16.9499C10.6847 17.1445 10.5852 17.3599 10.3906 17.431C10.3479 17.4463 10.3042 17.4539 10.2615 17.4539C10.1085 17.4539 9.96522 17.3599 9.90946 17.2079C9.83839 17.0133 9.93789 16.7979 10.1325 16.7268C10.1752 16.7115 10.2189 16.7038 10.2615 16.7038ZM10.2615 16.2665C10.1664 16.2665 10.0724 16.2829 9.98163 16.3157C9.56067 16.4699 9.34417 16.9367 9.49834 17.3577C9.61534 17.677 9.92149 17.8913 10.2615 17.8913C10.3567 17.8913 10.4507 17.8749 10.5414 17.8421C10.7448 17.7677 10.9077 17.6179 10.9985 17.4211C11.0892 17.2243 11.0991 17.0034 11.0247 16.8001C10.9077 16.4808 10.6016 16.2665 10.2615 16.2665Z" fill="white"/>
<path d="M12.4151 13.1637C14.0745 13.1637 15.4197 11.8184 15.4197 10.159C15.4197 8.49957 14.0745 7.15434 12.4151 7.15434C10.7556 7.15434 9.4104 8.49957 9.4104 10.159C9.4104 11.8184 10.7556 13.1637 12.4151 13.1637Z" fill="#F43397"/>
<path fill-rule="evenodd" clip-rule="evenodd" d="M1.28191 16.7925C1.26668 16.8192 1.24975 16.8508 1.23125 16.8875C1.16531 17.0181 1.08955 17.192 1.01134 17.3859C0.886984 17.6941 0.761481 18.0402 0.666329 18.316C1.62903 18.9987 2.79393 19.501 3.80952 19.8465C4.74526 20.1648 5.53739 20.3444 5.9011 20.4096C5.92001 20.3789 5.94174 20.3384 5.9655 20.287C6.03169 20.144 6.09912 19.9495 6.15991 19.7337C6.27289 19.3327 6.35015 18.9052 6.36224 18.6611C6.34236 18.6434 6.3116 18.6194 6.26677 18.5895C6.14333 18.5072 5.95603 18.4084 5.7158 18.2983C5.23829 18.0794 4.59205 17.8337 3.92918 17.6029C3.26773 17.3726 2.59641 17.1595 2.07182 17.0054C1.8093 16.9283 1.5855 16.8666 1.41908 16.825C1.36649 16.8119 1.32069 16.8011 1.28191 16.7925ZM6.38841 18.6883C6.38826 18.6883 6.38711 18.6869 6.38536 18.6842C6.38768 18.687 6.38855 18.6883 6.38841 18.6883ZM6.79473 18.2959C6.84661 18.3519 6.92797 18.4568 6.92797 18.5993C6.92797 18.904 6.83114 19.4313 6.70285 19.8867C6.63786 20.1173 6.56102 20.3433 6.4774 20.524C6.43579 20.6139 6.3888 20.7007 6.3359 20.7734C6.28811 20.8391 6.21143 20.9275 6.09961 20.9723L6.03029 21L5.95633 20.9898C5.64911 20.9474 4.72885 20.7551 3.62785 20.3805C2.52694 20.006 1.22309 19.442 0.163417 18.6473L0.000793457 18.5254L0.0650552 18.3325C0.164848 18.0331 0.326615 17.5755 0.488235 17.1749C0.56881 16.9751 0.651357 16.7845 0.727692 16.6333C0.765692 16.558 0.804736 16.4873 0.843637 16.4282C0.876499 16.3783 0.930191 16.3032 1.00466 16.2536L1.06778 16.2115L1.14349 16.2067C1.20524 16.2029 1.27942 16.2164 1.32864 16.226C1.39068 16.2381 1.46771 16.2558 1.55576 16.2778C1.73245 16.3219 1.96429 16.386 2.23077 16.4642C2.76418 16.6209 3.44434 16.8369 4.11464 17.0702C4.78352 17.3031 5.44929 17.5556 5.95086 17.7855C6.20016 17.8998 6.41917 18.0131 6.57966 18.1201C6.65908 18.1731 6.73529 18.2317 6.79473 18.2959Z" fill="#333333"/>
<path d="M7.22357 19.0625C7.54197 18.6978 7.8031 18.2637 7.98864 17.7898C8.46625 16.573 8.4273 15.1791 8.65408 13.8677C8.72967 13.4297 10.4477 10.6619 10.813 10.0735C11.1933 9.45973 11.4361 8.68757 11.0283 8.01126C10.2472 6.71455 9.27599 8.23492 8.74685 8.98578C8.39065 9.49168 6.51778 12.9034 5.82257 13.2842" fill="white"/>
<path d="M11.6583 8.00407C12.2611 8.84559 11.8623 9.76587 11.4124 10.3769C11.2062 10.6564 10.6203 11.4507 10.0759 12.2261C9.8034 12.6142 9.54359 12.9943 9.34753 13.3015C9.24927 13.4554 9.16957 13.587 9.11293 13.6901C9.06407 13.779 9.04485 13.8249 9.03904 13.8387C9.03716 13.8432 9.03668 13.8443 9.03706 13.8425C8.95314 14.2509 8.90383 14.6579 8.85269 15.0801L8.85268 15.0802C8.82749 15.2881 8.80186 15.4998 8.77141 15.7172C8.68163 16.3582 8.55219 17.0198 8.26013 17.646C8.03216 18.136 7.71159 18.5843 7.32045 18.9614C7.17669 19.1 6.9453 19.0983 6.80361 18.9577C6.66192 18.8171 6.6636 18.5908 6.80736 18.4522C7.13502 18.1363 7.40399 17.7601 7.59491 17.3497C7.84193 16.8201 7.96021 16.2415 8.04723 15.6202C8.07378 15.4306 8.09771 15.2335 8.1221 15.0327L8.1221 15.0327C8.17533 14.5944 8.23075 14.1382 8.3204 13.7019L8.45483 13.3782L10.8194 9.95898C11.2278 9.40413 11.3772 8.85755 11.0596 8.41427C10.8793 8.16236 10.8155 8.14677 10.8155 8.14677C10.8155 8.14677 10.3602 8.11548 10.1658 8.24097C9.8041 8.47442 9.4578 8.89077 9.16055 9.24814L9.16054 9.24815C9.1285 9.28667 9.09703 9.32451 9.06618 9.36135C9.01239 9.42564 8.92625 9.53268 8.81662 9.66892L8.81661 9.66894C8.5503 9.99987 8.14538 10.5031 7.72872 10.9843C7.43064 11.3285 7.11594 11.6744 6.82298 11.9592C6.54068 12.2337 6.24398 12.4865 5.98496 12.6059C5.80237 12.69 5.58461 12.6134 5.49858 12.4348C5.41255 12.2562 5.64219 12.2866 5.82478 12.2025C5.95816 12.141 6.02531 11.7267 6.30768 11.4521C6.57939 11.1879 6.87882 10.8596 7.17094 10.5222C7.57998 10.0498 7.95452 9.58414 8.21881 9.25555L8.21883 9.25552L8.21888 9.25546C8.33714 9.10844 8.43331 8.98886 8.50063 8.90841C8.52979 8.87358 8.56107 8.8358 8.59409 8.7959L8.5941 8.7959C8.8783 8.45255 9.2998 7.94333 9.76322 7.64422C10.2015 7.48464 11.1942 7.3332 11.6583 8.00407Z" fill="#333333"/>
</svg>
